[Header]
FileType HTR
DataType HTRS
FileVersion 1
NumSegments 64
NumFrames 4
DataFrameRate 30
EulerRotationOrder ZYX
CalibrationUnits mm
RotationUnits Degrees
GlobalAxisofGravity Y
BoneLengthAxis Y
ScaleFactor 1.0
[SegmentNames&Hierarchy]
Hips	GLOBAL
Spine	Hips
Spine1	Spine
Spine2	Spine1
Neck	Spine2
Head	Neck
LeftEye	Head
RightEye	Head
LeftShoulder	Spine2
LeftArm	LeftShoulder
LeftForeArm	LeftArm
LeftHand	LeftForeArm
LeftHandThumb1	LeftHand
LeftHandThumb2	LeftHandThumb1
LeftHandThumb3	LeftHandThumb2
LeftHandThumb4	LeftHandThumb3
LeftHandIndex1	LeftHand
LeftHandIndex2	LeftHandIndex1
LeftHandIndex3	LeftHandIndex2
LeftHandIndex4	LeftHandIndex3
LeftHandMiddle1	LeftHand
LeftHandMiddle2	LeftHandMiddle1
LeftHandMiddle3	LeftHandMiddle2
LeftHandMiddle4	LeftHandMiddle3
LeftHandRing1	LeftHand
LeftHandRing2	LeftHandRing1
LeftHandRing3	LeftHandRing2
LeftHandRing4	LeftHandRing3
LeftHandPinky1	LeftHand
LeftHandPinky2	LeftHandPinky1
LeftHandPinky3	LeftHandPinky2
LeftHandPinky4	LeftHandPinky3
RightShoulder	Spine2
RightArm	RightShoulder
RightForeArm	RightArm
RightHand	RightForeArm
RightHandPinky1	RightHand
RightHandPinky2	RightHandPinky1
RightHandPinky3	RightHandPinky2
RightHandPinky4	RightHandPinky3
RightHandRing1	RightHand
RightHandRing2	RightHandRing1
RightHandRing3	RightHandRing2
RightHandRing4	RightHandRing3
RightHandMiddle1	RightHand
RightHandMiddle2	RightHandMiddle1
RightHandMiddle3	RightHandMiddle2
RightHandMiddle4	RightHandMiddle3
RightHandIndex1	RightHand
RightHandIndex2	RightHandIndex1
RightHandIndex3	RightHandIndex2
RightHandIndex4	RightHandIndex3
RightHandThumb1	RightHand
RightHandThumb2	RightHandThumb1
RightHandThumb3	RightHandThumb2
RightHandThumb4	RightHandThumb3
LeftUpLeg	Hips
LeftLeg	LeftUpLeg
LeftFoot	LeftLeg
LeftToeBase	LeftFoot
RightUpLeg	Hips
RightLeg	RightUpLeg
RightFoot	RightLeg
RightToeBase	RightFoot
[BasePosition]
Hips	0	0	0	0	0	0	1
Spine	0	0	0	0	0	0	1
Spine1	0	0	0	0	0	0	1
Spine2	0	0	0	0	0	0	1
Neck	0	0	0	0	0	0	1
Head	0	0	0	0	0	0	1
LeftEye	0	0	0	0	0	0	1
RightEye	0	0	0	0	0	0	1
LeftShoulder	0	0	0	0	0	0	1
LeftArm	0	0	0	0	0	0	1
LeftForeArm	0	0	0	0	0	0	1
LeftHand	0	0	0	0	0	0	1
LeftHandThumb1	0	0	0	0	0	0	1
LeftHandThumb2	0	0	0	0	0	0	1
LeftHandThumb3	0	0	0	0	0	0	1
LeftHandThumb4	0	0	0	0	0	0	1
LeftHandIndex1	0	0	0	0	0	0	1
LeftHandIndex2	0	0	0	0	0	0	1
LeftHandIndex3	0	0	0	0	0	0	1
LeftHandIndex4	0	0	0	0	0	0	1
LeftHandMiddle1	0	0	0	0	0	0	1
LeftHandMiddle2	0	0	0	0	0	0	1
LeftHandMiddle3	0	0	0	0	0	0	1
LeftHandMiddle4	0	0	0	0	0	0	1
LeftHandRing1	0	0	0	0	0	0	1
LeftHandRing2	0	0	0	0	0	0	1
LeftHandRing3	0	0	0	0	0	0	1
LeftHandRing4	0	0	0	0	0	0	1
LeftHandPinky1	0	0	0	0	0	0	1
LeftHandPinky2	0	0	0	0	0	0	1
LeftHandPinky3	0	0	0	0	0	0	1
LeftHandPinky4	0	0	0	0	0	0	1
RightShoulder	0	0	0	0	0	0	1
RightArm	0	0	0	0	0	0	1
RightForeArm	0	0	0	0	0	0	1
RightHand	0	0	0	0	0	0	1
RightHandPinky1	0	0	0	0	0	0	1
RightHandPinky2	0	0	0	0	0	0	1
RightHandPinky3	0	0	0	0	0	0	1
RightHandPinky4	0	0	0	0	0	0	1
RightHandRing1	0	0	0	0	0	0	1
RightHandRing2	0	0	0	0	0	0	1
RightHandRing3	0	0	0	0	0	0	1
RightHandRing4	0	0	0	0	0	0	1
RightHandMiddle1	0	0	0	0	0	0	1
RightHandMiddle2	0	0	0	0	0	0	1
RightHandMiddle3	0	0	0	0	0	0	1
RightHandMiddle4	0	0	0	0	0	0	1
RightHandIndex1	0	0	0	0	0	0	1
RightHandIndex2	0	0	0	0	0	0	1
RightHandIndex3	0	0	0	0	0	0	1
RightHandIndex4	0	0	0	0	0	0	1
RightHandThumb1	0	0	0	0	0	0	1
RightHandThumb2	0	0	0	0	0	0	1
RightHandThumb3	0	0	0	0	0	0	1
RightHandThumb4	0	0	0	0	0	0	1
LeftUpLeg	0	0	0	0	0	0	1
LeftLeg	0	0	0	0	0	0	1
LeftFoot	0	0	0	0	0	0	1
LeftToeBase	0	0	0	0	0	0	1
RightUpLeg	0	0	0	0	0	0	1
RightLeg	0	0	0	0	0	0	1
RightFoot	0	0	0	0	0	0	1
RightToeBase	0	0	0	0	0	0	1
[Hips]
133	-139.6882324	877.5523682	1174.720337	-369.2008362	125.1332779	-9.927819252	1.0
134	-142.1373901	881.6393433	1148.188843	-373.9834595	114.6289368	-15.38652134	1.0
135	-143.1647339	888.4672852	1114.650269	-385.861908	104.3977661	-27.74390984	1.0
136	-139.9954987	899.9689941	1072.284912	-432.2653809	97.1023941	-74.00029755	1.0
[Spine]
133	0	101.8159943	1.315000057	2.145770311	5.460397243	-0.8912103772	1.0
134	0	101.8159943	1.315000057	2.197097301	4.610571861	-0.8349552751	1.0
135	0	101.8159943	1.315000057	2.313379288	3.618000507	-0.7564073801	1.0
136	0	101.8159943	1.315000057	2.59109354	2.475009203	-0.655451417	1.0
[Spine1]
133	0	100.8349991	-10.00800037	4.252792358	11.29884338	-1.110717893	1.0
134	0	100.8349991	-10.00800037	4.366121292	9.309840202	-1.012885451	1.0
135	0	100.8349991	-10.00800037	4.608350277	7.139840126	-0.9287868142	1.0
136	0	100.8349991	-10.00800037	5.166383743	4.86334753	-1.017076492	1.0
[Spine2]
133	0	91	-13.73399925	4.252792358	11.29883862	-1.110718846	1.0
134	0	91	-13.73399925	4.366121292	9.309839249	-1.012886643	1.0
135	0	91	-13.73399925	4.608350754	7.139849663	-0.9287865758	1.0
136	0	91	-13.73399925	5.166386127	4.863320827	-1.017076731	1.0
[Neck]
133	0	166.7169952	-25.16200066	-0.06598950922	-6.210064411	3.772684097	1.0
134	0	166.7169952	-25.16200066	0.9719643593	-6.952505112	4.326080799	1.0
135	0	166.7169952	-25.16200066	2.235785961	-7.721054077	4.869640827	1.0
136	0	166.7169952	-25.16200066	3.91086483	-8.346786499	5.362360477	1.0
[Head]
133	0	96.17900085	16.84999847	-22.63665199	-20.15095901	3.574122906	1.0
134	0	96.17900085	16.84999847	-22.29532814	-24.41448593	5.583590984	1.0
135	0	96.17900085	16.84999847	-22.92203712	-28.9670372	8.482819557	1.0
136	0	96.17900085	16.84999847	-24.13790321	-32.94672012	11.42772007	1.0
[LeftEye]
133	30.6760006	64.09500122	92.83599854	0	0	0	1.0
134	30.6760006	64.09500122	92.83599854	0	0	0	1.0
135	30.6760006	64.09500122	92.83599854	0	0	0	1.0
136	30.6760006	64.09500122	92.83599854	0	0	0	1.0
[RightEye]
133	-30.6760006	64.09500122	92.83499908	0	0	0	1.0
134	-30.6760006	64.09500122	92.83499908	0	0	0	1.0
135	-30.6760006	64.09500122	92.83499908	0	0	0	1.0
136	-30.6760006	64.09500122	92.83499908	0	0	0	1.0
[LeftShoulder]
133	45.70400238	109.4599991	-26.28000069	0.09421858191	5.107149601	5.630831718	1.0
134	45.70400238	109.4599991	-26.28000069	-0.1196104512	1.626018643	6.074297905	1.0
135	45.70400238	109.4599991	-26.28000069	-0.5317897201	-4.004353523	6.648266792	1.0
136	45.70400238	109.4599991	-26.28000069	-1.116912842	-10.67907619	7.313635349	1.0
[LeftArm]
133	105.923996	-5.24600029	-22.32099915	23.48570061	0.1965922862	-69.08621216	1.0
134	105.923996	-5.24600029	-22.32099915	21.93936539	-4.511144638	-64.14064789	1.0
135	105.923996	-5.24600029	-22.32099915	18.91031647	-12.49779034	-58.9293251	1.0
136	105.923996	-5.24600029	-22.32099915	12.13690567	-24.76450539	-52.10448837	1.0
[LeftForeArm]
133	278.414978	-0.0009999999311	0	-542.8297729	-44.240448	540.5147705	1.0
134	278.414978	-0.0009999999311	0	-542.8637085	-45.31570053	540.4076538	1.0
135	278.414978	-0.0009999999311	0	-542.9786377	-50.58359146	540.4143066	1.0
136	278.414978	-0.0009999999311	0	-543.5045166	-63.25675964	540.7879028	1.0
[LeftHand]
133	283.2879944	0	0	5.366304398	1.25844264	11.92815018	1.0
134	283.2879944	0	0	6.288631439	-0.8060299158	10.83381367	1.0
135	283.2879944	0	0	6.363821507	-3.667835712	10.73171234	1.0
136	283.2879944	0	0	3.931151152	-8.04547596	10.10031605	1.0
[LeftHandThumb1]
133	24.6609993	-15.75	26.8239994	7.079422951	-12.86557484	26.62315559	1.0
134	24.6609993	-15.75	26.8239994	8.173114777	-12.01697159	26.90195847	1.0
135	24.6609993	-15.75	26.8239994	9.818593979	-11.08906651	26.12404633	1.0
136	24.6609993	-15.75	26.8239994	12.21893406	-10.91295624	21.81196404	1.0
[LeftHandThumb2]
133	32.29800034	-18.64699936	18.64699936	9.920014381	6.418509007	-19.17143631	1.0
134	32.29800034	-18.64699936	18.64699936	9.63035965	7.921762466	-18.2396431	1.0
135	32.29800034	-18.64699936	18.64699936	9.198343277	9.954242706	-16.8803997	1.0
136	32.29800034	-18.64699936	18.64699936	8.682084084	12.17750645	-15.45501041	1.0
[LeftHandThumb3]
133	26.52600098	-15.31499958	15.31499958	3.601811159e-06	-8.438974328e-05	-6.943767221e-05	1.0
134	26.52600098	-15.31499958	15.31499958	3.601811159e-06	-8.438974328e-05	-6.943767221e-05	1.0
135	26.52600098	-15.31499958	15.31499958	3.601811159e-06	-8.438974328e-05	-6.943767221e-05	1.0
136	26.52600098	-15.31499958	15.31499958	3.601811159e-06	-8.438974328e-05	-6.943767221e-05	1.0
[LeftHandThumb4]
133	19.54599953	-11.28499985	11.28499985	0	0	0	1.0
134	19.54599953	-11.28499985	11.28499985	0	0	0	1.0
135	19.54599953	-11.28499985	11.28499985	0	0	0	1.0
136	19.54599953	-11.28499985	11.28499985	0	0	0	1.0
[LeftHandIndex1]
133	91.09299469	-5.170999527	22.60099792	-1.148684382	-2.729498148	-26.00055313	1.0
134	91.09299469	-5.170999527	22.60099792	-1.177575946	-2.939334393	-26.83971596	1.0
135	91.09299469	-5.170999527	22.60099792	-1.209488988	-3.217300892	-27.88970566	1.0
136	91.09299469	-5.170999527	22.60099792	-1.247315407	-3.529802561	-29.13787079	1.0
[LeftHandIndex2]
133	36.76399994	0	0	-1.050362706	-1.873701572	-36.3521347	1.0
134	36.76399994	0	0	-1.08407259	-2.105487585	-37.99246597	1.0
135	36.76399994	0	0	-1.115957856	-2.385382175	-39.96562576	1.0
136	36.76399994	0	0	-1.140918493	-2.708722115	-42.23742294	1.0
[LeftHandIndex3]
133	28.83100128	0	0	-1.432096042e-06	3.907105395e-07	1.552835329e-06	1.0
134	28.83100128	0	0	-1.432096042e-06	3.907105395e-07	1.552835329e-06	1.0
135	28.83100128	0	0	-1.432096042e-06	3.907105395e-07	1.552835329e-06	1.0
136	28.83100128	0	0	-1.432096042e-06	3.907105395e-07	1.552835329e-06	1.0
[LeftHandIndex4]
133	23.92700005	0	0	0	0	0	1.0
134	23.92700005	0	0	0	0	0	1.0
135	23.92700005	0	0	0	0	0	1.0
136	23.92700005	0	0	0	0	0	1.0
[LeftHandMiddle1]
133	95.33399963	0	0	-1.538477302	-1.833699226	-33.00134659	1.0
134	95.33399963	0	0	-1.574927211	-1.954497337	-33.94890594	1.0
135	95.33399963	0	0	-1.617094874	-2.104142904	-35.11557388	1.0
136	95.33399963	0	0	-1.662740588	-2.280387878	-36.48187637	1.0
[LeftHandMiddle2]
133	36.98199844	0	0	-0.6933273673	-3.129207611	-33.93451309	1.0
134	36.98199844	0	0	-0.6973715425	-3.339454889	-35.65727615	1.0
135	36.98199844	0	0	-0.6941484809	-3.586662531	-37.68331909	1.0
136	36.98199844	0	0	-0.6801579595	-3.865855932	-39.97465897	1.0
[LeftHandMiddle3]
133	29.50900078	0	0	0	-3.180554719e-15	-7.951386796e-16	1.0
134	29.50900078	0	0	0	-3.180554719e-15	-7.951386796e-16	1.0
135	29.50900078	0	0	0	-3.180554719e-15	-7.951386796e-16	1.0
136	29.50900078	0	0	0	-3.180554719e-15	-7.951386796e-16	1.0
[LeftHandMiddle4]
133	28.3390007	0	0	0	0	0	1.0
134	28.3390007	0	0	0	0	0	1.0
135	28.3390007	0	0	0	0	0	1.0
136	28.3390007	0	0	0	0	0	1.0
[LeftHandRing1]
133	91.04499817	-0.4390000105	-18.65100098	-3.425560713	3.920207262	-42.63339615	1.0
134	91.04499817	-0.4390000105	-18.65100098	-3.428993464	3.758303642	-43.56048584	1.0
135	91.04499817	-0.4390000105	-18.65100098	-3.429743528	3.556464672	-44.69874573	1.0
136	91.04499817	-0.4390000105	-18.65100098	-3.426451683	3.318840265	-46.02821732	1.0
[LeftHandRing2]
133	31.54000092	0	0	2.441655874	-2.735713959	-41.87799835	1.0
134	31.54000092	0	0	2.584600687	-2.765090466	-43.57066727	1.0
135	31.54000092	0	0	2.751853943	-2.794017553	-45.53960037	1.0
136	31.54000092	0	0	2.940221786	-2.819678307	-47.74488068	1.0
[LeftHandRing3]
133	29.37700081	0	0	1.590277359e-15	3.180554719e-15	-7.951386796e-16	1.0
134	29.37700081	0	0	1.590277359e-15	3.180554719e-15	-7.951386796e-16	1.0
135	29.37700081	0	0	1.590277359e-15	3.180554719e-15	-7.951386796e-16	1.0
136	29.37700081	0	0	1.590277359e-15	3.180554719e-15	-7.951386796e-16	1.0
[LeftHandRing4]
133	26.47500038	0	0	0	0	0	1.0
134	26.47500038	0	0	0	0	0	1.0
135	26.47500038	0	0	0	0	0	1.0
136	26.47500038	0	0	0	0	0	1.0
[LeftHandPinky1]
133	80.77799988	-4.887000084	-38.06099701	-4.130400658	9.785283089	-39.31998825	1.0
134	80.77799988	-4.887000084	-38.06099701	-4.105336189	9.43624115	-40.19353867	1.0
135	80.77799988	-4.887000084	-38.06099701	-4.068399429	8.981106758	-41.27232361	1.0
136	80.77799988	-4.887000084	-38.06099701	-4.024727821	8.458615303	-42.54129791	1.0
[LeftHandPinky2]
133	36	0	0	6.353288174	-3.358350754	-58.56907272	1.0
134	36	0	0	6.485017776	-3.248853207	-59.69347763	1.0
135	36	0	0	6.641935825	-3.113218307	-61.04911804	1.0
136	36	0	0	6.819675446	-2.952049971	-62.61262131	1.0
[LeftHandPinky3]
133	21.14200211	0	0	3.226109357e-06	2.925280342e-06	-5.739977951e-06	1.0
134	21.14200211	0	0	3.226109357e-06	2.925280342e-06	-5.739977951e-06	1.0
135	21.14200211	0	0	3.226109357e-06	2.925280342e-06	-5.739977951e-06	1.0
136	21.14200211	0	0	3.226109357e-06	2.925280342e-06	-5.739977951e-06	1.0
[LeftHandPinky4]
133	19.75699997	0	0	0	0	0	1.0
134	19.75699997	0	0	0	0	0	1.0
135	19.75699997	0	0	0	0	0	1.0
136	19.75699997	0	0	0	0	0	1.0
[RightShoulder]
133	-45.70000076	109.4620056	-26.28000069	5.297333241	15.09220886	11.46367645	1.0
134	-45.70000076	109.4620056	-26.28000069	4.579857826	14.45722389	11.15167999	1.0
135	-45.70000076	109.4620056	-26.28000069	3.583129883	13.07853317	10.83958817	1.0
136	-45.70000076	109.4620056	-26.28000069	2.354582548	9.565615654	10.57080269	1.0
[RightArm]
133	-105.9280014	-5.248000145	-22.32099915	-306.4977112	36.33033752	-300.7972107	1.0
134	-105.9280014	-5.248000145	-22.32099915	-302.0651855	42.02795029	-301.0470276	1.0
135	-105.9280014	-5.248000145	-22.32099915	-299.8182983	47.0925827	-301.3631287	1.0
136	-105.9280014	-5.248000145	-22.32099915	-300.2192383	50.18842316	-301.0698547	1.0
[RightForeArm]
133	-278.414978	0	0	-1.936565757	62.93897247	-0.7571704984	1.0
134	-278.414978	0	0	-1.978361487	69.41767883	-0.6651156545	1.0
135	-278.414978	0	0	-2.253008127	77.6034317	-0.8410283923	1.0
136	-278.414978	0	0	-8.542344093	88.1762619	-7.156364441	1.0
[RightHand]
133	-283.2879944	0	0.0009999999311	20.64455986	10.1641407	20.17917252	1.0
134	-283.2879944	0	0.0009999999311	23.06591988	9.104028702	15.05217075	1.0
135	-283.2879944	0	0.0009999999311	26.83234787	8.381173134	10.29011059	1.0
136	-283.2879944	0	0.0009999999311	30.98973465	7.946108341	9.187929153	1.0
[RightHandPinky1]
133	-80.76699829	-4.885000229	-38.06000137	-0.5731852055	-5.586154938	43.93198013	1.0
134	-80.76699829	-4.885000229	-38.06000137	-0.7708827257	-5.526912212	44.04051971	1.0
135	-80.76699829	-4.885000229	-38.06000137	-1.02130723	-5.226298809	44.85157776	1.0
136	-80.76699829	-4.885000229	-38.06000137	-1.309436083	-4.724739075	46.22218704	1.0
[RightHandPinky2]
133	-36	0	0.0009999999311	8.29087925	5.901804924	60.62509155	1.0
134	-36	0	0.0009999999311	8.207378387	5.971146107	59.69817734	1.0
135	-36	0	0.0009999999311	8.200709343	6.018037796	59.08641434	1.0
136	-36	0	0.0009999999311	8.25268364	6.05092907	58.70606995	1.0
[RightHandPinky3]
133	-21.14200211	0	0	-1.590277359e-15	0	-7.951386796e-16	1.0
134	-21.14200211	0	0	-1.590277359e-15	0	-7.951386796e-16	1.0
135	-21.14200211	0	0	-1.590277359e-15	0	-7.951386796e-16	1.0
136	-21.14200211	0	0	-1.590277359e-15	0	-7.951386796e-16	1.0
[RightHandPinky4]
133	-19.75699997	0	0	0	0	0	1.0
134	-19.75699997	0	0	0	0	0	1.0
135	-19.75699997	0	0	0	0	0	1.0
136	-19.75699997	0	0	0	0	0	1.0
[RightHandRing1]
133	-91.03599548	-0.4390000105	-18.65100098	-1.646173358	-1.675637007	46.13419342	1.0
134	-91.03599548	-0.4390000105	-18.65100098	-1.837769151	-1.711217999	45.98899841	1.0
135	-91.03599548	-0.4390000105	-18.65100098	-2.07998085	-1.600375175	46.49266815	1.0
136	-91.03599548	-0.4390000105	-18.65100098	-2.360179424	-1.368826628	47.51429749	1.0
[RightHandRing2]
133	-31.54000092	0	0	2.792415619	3.618213654	41.47901154	1.0
134	-31.54000092	0	0	2.755300999	3.59540844	40.77111053	1.0
135	-31.54000092	0	0	2.776438236	3.592280865	40.52946854	1.0
136	-31.54000092	0	0	2.841742992	3.605049849	40.6384201	1.0
[RightHandRing3]
133	-29.37700081	0	0	5.740008078e-07	-7.531911024e-07	-2.69121324e-06	1.0
134	-29.37700081	0	0	5.740008078e-07	-7.531911024e-07	-2.69121324e-06	1.0
135	-29.37700081	0	0	5.740008078e-07	-7.531911024e-07	-2.69121324e-06	1.0
136	-29.37700081	0	0	5.740008078e-07	-7.531911024e-07	-2.69121324e-06	1.0
[RightHandRing4]
133	-26.47500038	0	0	0	0	0	1.0
134	-26.47500038	0	0	0	0	0	1.0
135	-26.47500038	0	0	0	0	0	1.0
136	-26.47500038	0	0	0	0	0	1.0
[RightHandMiddle1]
133	-95.32500458	0	0	-2.842723131	2.456629276	38.31563187	1.0
134	-95.32500458	0	0	-2.83200264	2.386188984	38.29924393	1.0
135	-95.32500458	0	0	-2.836586237	2.382012606	38.97047043	1.0
136	-95.32500458	0	0	-2.851202965	2.430971146	40.19152832	1.0
[RightHandMiddle2]
133	-36.98199844	0	0	-0.9783418179	2.967180729	38.4777298	1.0
134	-36.98199844	0	0	-1.023532271	2.891367435	37.83131027	1.0
135	-36.98199844	0	0	-1.089393497	2.874795675	37.76900482	1.0
136	-36.98199844	0	0	-1.172075748	2.902414322	38.14865875	1.0
[RightHandMiddle3]
133	-29.50900078	0	0	1.856611448e-06	-0.002022909233	1.577868488e-06	1.0
134	-29.50900078	0	0	1.856611448e-06	-0.002022909233	1.577868488e-06	1.0
135	-29.50900078	0	0	1.856611448e-06	-0.002022909233	1.577868488e-06	1.0
136	-29.50900078	0	0	1.856611448e-06	-0.002022909233	1.577868488e-06	1.0
[RightHandMiddle4]
133	-28.3390007	0	0.0009999999311	0	0	0	1.0
134	-28.3390007	0	0.0009999999311	0	0	0	1.0
135	-28.3390007	0	0.0009999999311	0	0	0	1.0
136	-28.3390007	0	0.0009999999311	0	0	0	1.0
[RightHandIndex1]
133	-91.08300018	-5.167999744	22.60099792	-2.652245522	2.00071311	30.60378075	1.0
134	-91.08300018	-5.167999744	22.60099792	-2.517495394	1.854436517	30.88113976	1.0
135	-91.08300018	-5.167999744	22.60099792	-2.375775337	1.712572455	31.99842834	1.0
136	-91.08300018	-5.167999744	22.60099792	-2.224437475	1.57246995	33.78785706	1.0
[RightHandIndex2]
133	-36.76399994	0	0	-1.423778176	1.425522089	38.68512726	1.0
134	-36.76399994	0	0	-1.475858092	1.344368696	38.12746429	1.0
135	-36.76399994	0	0	-1.570218563	1.337355137	38.2062645	1.0
136	-36.76399994	0	0	-1.69672668	1.381145835	38.73656082	1.0
[RightHandIndex3]
133	-28.83100128	0	0	-3.180554719e-15	0	0	1.0
134	-28.83100128	0	0	-3.180554719e-15	0	0	1.0
135	-28.83100128	0	0	-3.180554719e-15	0	0	1.0
136	-28.83100128	0	0	-3.180554719e-15	0	0	1.0
[RightHandIndex4]
133	-23.92700005	0	0	0	0	0	1.0
134	-23.92700005	0	0	0	0	0	1.0
135	-23.92700005	0	0	0	0	0	1.0
136	-23.92700005	0	0	0	0	0	1.0
[RightHandThumb1]
133	-24.64799881	-15.72700024	26.82600021	6.56653595	13.22242737	-25.76157188	1.0
134	-24.64799881	-15.72700024	26.82600021	6.611139774	13.31033993	-24.76233864	1.0
135	-24.64799881	-15.72700024	26.82600021	6.611866951	13.40244102	-23.4679203	1.0
136	-24.64799881	-15.72700024	26.82600021	6.588680744	13.48844051	-21.91208076	1.0
[RightHandThumb2]
133	-32.29800034	-18.64699936	18.64699936	9.947402954	-6.54197979	20.19577408	1.0
134	-32.29800034	-18.64699936	18.64699936	9.917884827	-7.633749962	21.12475204	1.0
135	-32.29800034	-18.64699936	18.64699936	9.766908646	-8.881175041	22.21290398	1.0
136	-32.29800034	-18.64699936	18.64699936	9.515898705	-10.30790329	23.44113731	1.0
[RightHandThumb3]
133	-26.52600098	-15.31399918	15.31399918	-3.81245151e-08	-0.00121095567	-0.001221005921	1.0
134	-26.52600098	-15.31399918	15.31399918	-3.81245151e-08	-0.00121095567	-0.001221005921	1.0
135	-26.52600098	-15.31399918	15.31399918	-3.81245151e-08	-0.00121095567	-0.001221005921	1.0
136	-26.52600098	-15.31399918	15.31399918	-3.81245151e-08	-0.00121095567	-0.001221005921	1.0
[RightHandThumb4]
133	-19.54599953	-11.28499985	11.28499985	0	0	0	1.0
134	-19.54599953	-11.28499985	11.28499985	0	0	0	1.0
135	-19.54599953	-11.28499985	11.28499985	0	0	0	1.0
136	-19.54599953	-11.28499985	11.28499985	0	0	0	1.0
[LeftUpLeg]
133	82.07800293	-67.51699829	-15.99599934	-46.46299362	-14.63927937	0.2541981339	1.0
134	82.07800293	-67.51699829	-15.99599934	-44.93650055	-11.18020916	0.1807184368	1.0
135	82.07800293	-67.51699829	-15.99599934	-43.1999588	-7.261172295	-0.3198221028	1.0
136	82.07800293	-67.51699829	-15.99599934	-40.51513672	-2.947231054	-1.812931538	1.0
[LeftLeg]
133	0	-443.7049866	2.845999956	51.88218689	-12.91965866	-0.4221239686	1.0
134	0	-443.7049866	2.845999956	53.54947281	-11.8710413	-0.4447315335	1.0
135	0	-443.7049866	2.845999956	54.85115814	-10.32320976	-1.072696686	1.0
136	0	-443.7049866	2.845999956	55.06969833	-8.994951248	-2.526726723	1.0
[LeftFoot]
133	0	-444.2789917	-29.8219986	-7.380796432	-25.08475876	-12.41954994	1.0
134	0	-444.2789917	-29.8219986	-13.25597191	-22.40980911	-10.27717781	1.0
135	0	-444.2789917	-29.8219986	-17.48935509	-18.73295212	-7.362857819	1.0
136	0	-444.2789917	-29.8219986	-19.17413902	-13.48202324	-4.695495129	1.0
[LeftToeBase]
133	0	-87.28699493	107.1060028	0.8605540991	1.54853285e-06	3.460213748e-06	1.0
134	0	-87.28699493	107.1060028	3.489218235	1.615430119e-05	-7.160029014e-08	1.0
135	0	-87.28699493	107.1060028	4.7808218	2.479209979e-05	-5.067676739e-06	1.0
136	0	-87.28699493	107.1060028	3.150388718	9.876605873e-06	-3.189005383e-06	1.0
[RightUpLeg]
133	-82.07800293	-67.51699829	-15.99599934	0.8464997411	-25.21511078	-21.10923004	1.0
134	-82.07800293	-67.51699829	-15.99599934	-2.414165258	-23.40399361	-23.8356781	1.0
135	-82.07800293	-67.51699829	-15.99599934	-5.612734795	-22.04305649	-26.48407555	1.0
136	-82.07800293	-67.51699829	-15.99599934	-7.254288673	-20.73541641	-29.55836487	1.0
[RightLeg]
133	0	-443.7049866	2.861999989	54.44216156	-4.194120407	-5.446228981	1.0
134	0	-443.7049866	2.861999989	52.16925812	1.065093279	-3.995335579	1.0
135	0	-443.7049866	2.861999989	48.00610733	6.110980511	-2.714385986	1.0
136	0	-443.7049866	2.861999989	40.49663925	10.62155724	-1.72102201	1.0
[RightFoot]
133	0	-444.2770081	-29.83799934	-35.19895554	2.966043949	22.58018684	1.0
134	0	-444.2770081	-29.83799934	-33.56879807	5.342719555	22.07688332	1.0
135	0	-444.2770081	-29.83799934	-30.13917351	7.96181345	22.3538456	1.0
136	0	-444.2770081	-29.83799934	-23.77972412	10.16123867	23.93359184	1.0
[RightToeBase]
133	0	-87.28699493	107.1060028	-13.24880219	-1.420565695e-05	-4.352248197e-06	1.0
134	0	-87.28699493	107.1060028	-12.11806774	-2.242521987e-05	-4.541720386e-07	1.0
135	0	-87.28699493	107.1060028	-10.71187305	-5.387566489e-06	4.543959221e-06	1.0
136	0	-87.28699493	107.1060028	-9.462591171	1.768229049e-05	-6.270506219e-06	1.0
[EndOfFile]
